# xmcd
#
# Track frame offsets:
#	150
#	13793
#	32658
#	47418
#	63099
#	75602
#	92047
#	109829
#	124583
#	142468
#	156372
#	182711
#	207704
#	232685
#	252214
#	273084
#	303130
#	322457
#
# Disc length: 4516
#
# Revision: 1
# Processed by: cddbd v1.5.1PL0 Copyright (c) Steve Scherf et al.
# Submitted via: CDex 1.50
# Normalized: r0:DSETVAR1,TDELIM( - )
#
DISCID=f711a212
DTITLE=Various Artist - Kuschel Jazz - CD1
DYEAR=2003
DGENRE=Jazz
TTITLE0=Norah Jones - Come Away With Me
TTITLE1=George Michael - Roxane
TTITLE2=Natalie Cole - What A Diference A Day Made
TTITLE3=Nat King Cole - Unforgettable
TTITLE4=Dinah Washington - Mad About The Boy
TTITLE5=Miles Davis - Time After Time
TTITLE6=Sade - Your Love Is King
TTITLE7=Eva Cassidy - People Get Ready
TTITLE8=Steve Tyrell - As Time Goes By
TTITLE9=Alison Moyet - That Ole Devil Called Love
TTITLE10=Al Jarreou - Your Song
TTITLE11=Oleta Adams - New York State Of Mind
TTITLE12=Luther Vandeross - Killing Me Softly
TTITLE13=Kenny G. - Silhouette
TTITLE14=Ella Fitzgerald and Louis Armstrong - They Can't Take Away From Me
TTITLE15=Jane Monheit - Over The Rainbow
TTITLE16=Stan Getz and Astrud Gilberto - Corcovado
TTITLE17=Robbie Williams - Mr. Bojanges
EXTD=YEAR: 2003
EXTT0=
EXTT1=
EXTT2=
EXTT3=
EXTT4=
EXTT5=
EXTT6=
EXTT7=
EXTT8=
EXTT9=
EXTT10=
EXTT11=
EXTT12=
EXTT13=
EXTT14=
EXTT15=
EXTT16=
EXTT17=
PLAYORDER=
